<mxfile host="app.diagrams.net" modified="2023-10-20T15:02:27.945Z" agent="Mozilla/5.0 (Windows NT 10.0; Win64; x64) AppleWebKit/537.36 (KHTML, like Gecko) Chrome/118.0.0.0 Safari/537.36 Edg/118.0.2088.57" version="22.0.6" etag="VxjV3wGOc7Ga3w61YkMU" type="github">
  <diagram name="Trang-1" id="87yDDkWBM1vSTytwz_cX">
    <mxGraphModel>
      <root>
        <mxCell id="0" />
        <mxCell id="1" parent="0" />
      </root>
    </mxGraphModel>
  </diagram>
</mxfile>
